<mxfile host="app.diagrams.net" agent="Mozilla/5.0 (Windows NT 10.0; Win64; x64) AppleWebKit/537.36 (KHTML, like Gecko) Chrome/127.0.0.0 Safari/537.36" version="24.7.7">
  <diagram name="Page-1" id="G41o5TeunjA-o2MUel7V">
    <mxGraphModel dx="1434" dy="746" grid="1" gridSize="10" guides="1" tooltips="1" connect="1" arrows="1" fold="1" page="1" pageScale="1" pageWidth="850" pageHeight="1100" math="0" shadow="0">
      <root>
        <mxCell id="0" />
        <mxCell id="1" parent="0" />
        <mxCell id="JmkW9-d9a_F6F8Z1GE6X-4" value="" style="whiteSpace=wrap;html=1;aspect=fixed;" parent="1" vertex="1">
          <mxGeometry x="245" y="15" width="360" height="360" as="geometry" />
        </mxCell>
        <mxCell id="JmkW9-d9a_F6F8Z1GE6X-5" value="Header" style="rounded=0;whiteSpace=wrap;html=1;fontSize=20;" parent="1" vertex="1">
          <mxGeometry x="268" y="30" width="315" height="30" as="geometry" />
        </mxCell>
        <mxCell id="JmkW9-d9a_F6F8Z1GE6X-6" value="Home Button" style="rounded=0;whiteSpace=wrap;html=1;fontSize=20;" parent="1" vertex="1">
          <mxGeometry x="260" y="70" width="330" height="50" as="geometry" />
        </mxCell>
        <mxCell id="JmkW9-d9a_F6F8Z1GE6X-7" value="Notification Button" style="rounded=0;whiteSpace=wrap;html=1;fontSize=20;" parent="1" vertex="1">
          <mxGeometry x="260" y="130" width="330" height="50" as="geometry" />
        </mxCell>
        <mxCell id="JmkW9-d9a_F6F8Z1GE6X-8" value="Search Bar" style="rounded=0;whiteSpace=wrap;html=1;fontSize=20;" parent="1" vertex="1">
          <mxGeometry x="260" y="190" width="330" height="50" as="geometry" />
        </mxCell>
        <mxCell id="JmkW9-d9a_F6F8Z1GE6X-9" value="Tweet Button" style="rounded=0;whiteSpace=wrap;html=1;fontSize=20;" parent="1" vertex="1">
          <mxGeometry x="260" y="250" width="330" height="50" as="geometry" />
        </mxCell>
        <mxCell id="JmkW9-d9a_F6F8Z1GE6X-10" style="edgeStyle=orthogonalEdgeStyle;rounded=0;orthogonalLoop=1;jettySize=auto;html=1;exitX=0.5;exitY=1;exitDx=0;exitDy=0;" parent="1" source="JmkW9-d9a_F6F8Z1GE6X-4" target="JmkW9-d9a_F6F8Z1GE6X-4" edge="1">
          <mxGeometry relative="1" as="geometry" />
        </mxCell>
        <mxCell id="JmkW9-d9a_F6F8Z1GE6X-11" style="edgeStyle=orthogonalEdgeStyle;rounded=0;orthogonalLoop=1;jettySize=auto;html=1;exitX=0.5;exitY=1;exitDx=0;exitDy=0;" parent="1" source="JmkW9-d9a_F6F8Z1GE6X-4" target="JmkW9-d9a_F6F8Z1GE6X-4" edge="1">
          <mxGeometry relative="1" as="geometry" />
        </mxCell>
        <mxCell id="JmkW9-d9a_F6F8Z1GE6X-13" style="edgeStyle=orthogonalEdgeStyle;rounded=0;orthogonalLoop=1;jettySize=auto;html=1;exitX=0.5;exitY=1;exitDx=0;exitDy=0;" parent="1" source="JmkW9-d9a_F6F8Z1GE6X-4" target="JmkW9-d9a_F6F8Z1GE6X-4" edge="1">
          <mxGeometry relative="1" as="geometry" />
        </mxCell>
        <mxCell id="JmkW9-d9a_F6F8Z1GE6X-16" style="edgeStyle=orthogonalEdgeStyle;rounded=0;orthogonalLoop=1;jettySize=auto;html=1;exitX=0.5;exitY=1;exitDx=0;exitDy=0;" parent="1" source="JmkW9-d9a_F6F8Z1GE6X-4" target="JmkW9-d9a_F6F8Z1GE6X-4" edge="1">
          <mxGeometry relative="1" as="geometry" />
        </mxCell>
        <mxCell id="JmkW9-d9a_F6F8Z1GE6X-20" value="" style="rounded=0;whiteSpace=wrap;html=1;" parent="1" vertex="1">
          <mxGeometry x="20" y="400" width="250" height="270" as="geometry" />
        </mxCell>
        <mxCell id="JmkW9-d9a_F6F8Z1GE6X-21" value="Title Card" style="rounded=0;whiteSpace=wrap;html=1;fontSize=15;" parent="1" vertex="1">
          <mxGeometry x="40" y="410" width="210" height="40" as="geometry" />
        </mxCell>
        <mxCell id="JmkW9-d9a_F6F8Z1GE6X-22" value="Name" style="rounded=0;whiteSpace=wrap;html=1;" parent="1" vertex="1">
          <mxGeometry x="40" y="460" width="210" height="30" as="geometry" />
        </mxCell>
        <mxCell id="JmkW9-d9a_F6F8Z1GE6X-23" value="Tweets button" style="rounded=0;whiteSpace=wrap;html=1;" parent="1" vertex="1">
          <mxGeometry x="40" y="500" width="210" height="30" as="geometry" />
        </mxCell>
        <mxCell id="JmkW9-d9a_F6F8Z1GE6X-24" value="Following" style="rounded=0;whiteSpace=wrap;html=1;" parent="1" vertex="1">
          <mxGeometry x="40" y="540" width="210" height="30" as="geometry" />
        </mxCell>
        <mxCell id="JmkW9-d9a_F6F8Z1GE6X-25" value="Followers" style="rounded=0;whiteSpace=wrap;html=1;" parent="1" vertex="1">
          <mxGeometry x="40" y="580" width="210" height="30" as="geometry" />
        </mxCell>
        <mxCell id="JmkW9-d9a_F6F8Z1GE6X-27" value="Wall Of Text" style="rounded=0;whiteSpace=wrap;html=1;" parent="1" vertex="1">
          <mxGeometry x="40" y="630" width="210" height="30" as="geometry" />
        </mxCell>
        <mxCell id="JmkW9-d9a_F6F8Z1GE6X-28" style="edgeStyle=orthogonalEdgeStyle;rounded=0;orthogonalLoop=1;jettySize=auto;html=1;exitX=0.5;exitY=1;exitDx=0;exitDy=0;" parent="1" source="JmkW9-d9a_F6F8Z1GE6X-27" target="JmkW9-d9a_F6F8Z1GE6X-27" edge="1">
          <mxGeometry relative="1" as="geometry" />
        </mxCell>
        <mxCell id="JmkW9-d9a_F6F8Z1GE6X-29" style="edgeStyle=orthogonalEdgeStyle;rounded=0;orthogonalLoop=1;jettySize=auto;html=1;exitX=0.5;exitY=1;exitDx=0;exitDy=0;" parent="1" source="JmkW9-d9a_F6F8Z1GE6X-27" target="JmkW9-d9a_F6F8Z1GE6X-27" edge="1">
          <mxGeometry relative="1" as="geometry" />
        </mxCell>
        <mxCell id="JmkW9-d9a_F6F8Z1GE6X-31" value="" style="rounded=0;whiteSpace=wrap;html=1;" parent="1" vertex="1">
          <mxGeometry x="320" y="400" width="200" height="190" as="geometry" />
        </mxCell>
        <mxCell id="JmkW9-d9a_F6F8Z1GE6X-32" value="Posts" style="rounded=0;whiteSpace=wrap;html=1;fontSize=20;" parent="1" vertex="1">
          <mxGeometry x="330" y="410" width="180" height="40" as="geometry" />
        </mxCell>
        <mxCell id="JmkW9-d9a_F6F8Z1GE6X-34" value="Post" style="rounded=0;whiteSpace=wrap;html=1;" parent="1" vertex="1">
          <mxGeometry x="360" y="460" width="120" height="30" as="geometry" />
        </mxCell>
        <mxCell id="JmkW9-d9a_F6F8Z1GE6X-35" value="Post" style="rounded=0;whiteSpace=wrap;html=1;" parent="1" vertex="1">
          <mxGeometry x="360" y="500" width="120" height="30" as="geometry" />
        </mxCell>
        <mxCell id="JmkW9-d9a_F6F8Z1GE6X-36" value="Post" style="rounded=0;whiteSpace=wrap;html=1;" parent="1" vertex="1">
          <mxGeometry x="360" y="540" width="120" height="30" as="geometry" />
        </mxCell>
        <mxCell id="JmkW9-d9a_F6F8Z1GE6X-37" value="" style="rounded=0;whiteSpace=wrap;html=1;" parent="1" vertex="1">
          <mxGeometry x="560" y="400" width="200" height="210" as="geometry" />
        </mxCell>
        <mxCell id="JmkW9-d9a_F6F8Z1GE6X-39" value="Friend Buttons" style="rounded=0;whiteSpace=wrap;html=1;fontSize=20;" parent="1" vertex="1">
          <mxGeometry x="580" y="410" width="160" height="60" as="geometry" />
        </mxCell>
        <mxCell id="JmkW9-d9a_F6F8Z1GE6X-41" value="Friend Button" style="rounded=0;whiteSpace=wrap;html=1;" parent="1" vertex="1">
          <mxGeometry x="600" y="480" width="120" height="30" as="geometry" />
        </mxCell>
        <mxCell id="JmkW9-d9a_F6F8Z1GE6X-42" value="Friend Button" style="rounded=0;whiteSpace=wrap;html=1;" parent="1" vertex="1">
          <mxGeometry x="600" y="520" width="120" height="30" as="geometry" />
        </mxCell>
        <mxCell id="JmkW9-d9a_F6F8Z1GE6X-43" value="Friend Button" style="rounded=0;whiteSpace=wrap;html=1;" parent="1" vertex="1">
          <mxGeometry x="600" y="560" width="120" height="30" as="geometry" />
        </mxCell>
      </root>
    </mxGraphModel>
  </diagram>
</mxfile>
